<svg xmlns="http://www.w3.org/2000/svg" viewBox="0 0 64 64">
  <defs>
    <linearGradient id="bg" x1="12" y1="8" x2="54" y2="58" gradientUnits="userSpaceOnUse">
      <stop stop-color="#e06bdf"/>
      <stop offset="0.55" stop-color="#7c6ef0"/>
      <stop offset="1" stop-color="#2d1052"/>
    </linearGradient>
    <linearGradient id="mark" x1="18" y1="22" x2="48" y2="48" gradientUnits="userSpaceOnUse">
      <stop stop-color="#ffffff"/>
      <stop offset="1" stop-color="#d9d2ff"/>
    </linearGradient>
  </defs>
  <circle cx="32" cy="32" r="30" fill="url(#bg)"/>
  <path
    fill="none"
    stroke="rgba(255,255,255,0.34)"
    stroke-width="2"
    d="M32 3a29 29 0 1 1 0 58 29 29 0 0 1 0-58Z"
  />
  <path
    fill="url(#mark)"
    d="M21 25.5c0-1.93 1.57-3.5 3.5-3.5h15c1.93 0 3.5 1.57 3.5 3.5V28h3.5c1.93 0 3.5 1.57 3.5 3.5v14c0 1.93-1.57 3.5-3.5 3.5h-29c-1.93 0-3.5-1.57-3.5-3.5v-14c0-1.93 1.57-3.5 3.5-3.5H21v-2.5Zm5 2.5h12v-1.25c0-.41-.34-.75-.75-.75h-10.5c-.41 0-.75.34-.75.75V28Zm-6 7.5V44h24V35.5h-7.2c-.9 1.52-2.55 2.5-4.8 2.5s-3.9-.98-4.8-2.5H20Z"
  />
</svg>
